<svg xmlns="http://www.w3.org/2000/svg" viewBox="0 0 640.45 199.64"><defs><style>.cls-1{fill:#8c0000;}.cls-2{fill:#fff;}</style></defs><title>Recurso 3</title><g id="Capa_2" data-name="Capa 2"><g id="Web_640" data-name="Web 640"><g id="Banner_640" data-name="Banner 640"><path class="cls-1" d="M639.71,187.33a3.84,3.84,0,0,0-1.45-1.64l-1.06,2.57-1.53-1a1.72,1.72,0,0,1-1.36,2.28c-.12.83-1.33.79-2.12.52l-.48,1.11L630.23,190l-.93.91a1.86,1.86,0,0,0-2.63-.79c0-.73-.95-.95-1.57-1.34-1.07-.67-1.16-2.16-1.14-3.42a2,2,0,0,1-2-1.36l-1,1.72-1.24-1.41a2.43,2.43,0,0,1-1.23,1.29,2.3,2.3,0,0,1-.27-1.52.83.83,0,0,1-.21-1.65,1.82,1.82,0,0,1-.76-.84l1.54-.23c-.42-.23,0-.87.51-1s1.1-.18,1.18-.65a.71.71,0,0,0-.25-.59,1.34,1.34,0,0,0-1.86.05c-.45.49-.85,1.44-1.43,1.11.42.76-.73,1.76-1.42,1.23a4.38,4.38,0,0,0,.16,1.75c.28,2.12-1.58.76-2.38,1.49-1.08,1-.37,2.4-2.43,2.9-1.15.27-2.61.6-2.85,1.76l-3.17-.83-5.12-1.33a6.46,6.46,0,0,0-.9-2.42,2.83,2.83,0,0,0,1-1.25l-1-.74a5.52,5.52,0,0,0,3.33-5.2,2.16,2.16,0,0,0-2.38-.61l-.13,1.88-5.64,2.49-.75-1.57a1.29,1.29,0,0,1-1.69-.61,10.56,10.56,0,0,0-3.83-.47l-.24-1-.83,1.32a3.06,3.06,0,0,0-3.12-.36,2.67,2.67,0,0,0-1.59-2.88,2,2,0,0,0-1.6.71,4.06,4.06,0,0,1-1.5-1.32l-1.53,1.17L576.17,175a6.81,6.81,0,0,1-1.54,3.26,2.36,2.36,0,0,1-3.26.2l-.65,1.44c-.26-.61-1.3-.29-1.45.35a2.4,2.4,0,0,0,.58,1.81l-1.4,1a2.66,2.66,0,0,0,1,1.29l-.68,1.17-.63,3.94a4.18,4.18,0,0,1-2.77-.82,2.28,2.28,0,0,0-.75,1.08L563,189l-1,.78-2-1.3-1.29,1.07a5.63,5.63,0,0,0-4.54-1.77,8.28,8.28,0,0,0-3.48-1.67l-2.26.6a1.36,1.36,0,0,1-.39,2.12l.32,1.65c-1.61.83-3.55.19-5.24-.46l-4.8-1.84-1.12-.43c-.73-.28-1.57-.71-1.63-1.49-2.13-.3-6.13,1.83-8.24,2.43l-1.86,2.2a4.86,4.86,0,0,0-3-1.33c.8-.82-.18-2.14-1.15-2.75s-2.17-1.54-1.76-2.61c-1.49-.29-1.7,2.93-3.21,2.76-.51-.05-.88-.53-1.37-.7s-1.28.08-1.93,0a3.45,3.45,0,0,1-1.36-.56l-3-1.76c-1.22-.71-2.72-1.44-3.95-.76l-.74-1.95a2.78,2.78,0,0,1-3.37-2.71c-.51.5-1.31-.14-1.71-.73l-2.38-3.46a3.14,3.14,0,0,0-.81-.89c-1.23-.8-2.78.42-3.64,1.61a3,3,0,0,0-4.92,0l-1.18-1.65c-.45,1.07-2.08,0-2.49-1s-1.25-2.56-2.29-2c.76-.72.32-2-.31-2.85s-1.46-1.72-1.35-2.76a5.66,5.66,0,0,1-4.2,1.29,2,2,0,0,0-1.07,0c-.66.3-.75,1.29-1.4,1.6-.82.39-1.58-.56-2.21-1.21-1.18-1.2-3.4.73-4.65,1.16a.9.9,0,0,1-.68,0c-.19-.09-.29-.29-.44-.44-.61-.63-1.65-.09-2.39.39s-2,.78-2.3,0a1.65,1.65,0,0,1-1.67,1.66c-.35,0-.8-.11-1,.2s0,.41,0,.62c0,.72-.88,1.13-1.59,1.08s-1.39-.4-2.1-.44a8.6,8.6,0,0,0-2.74.67,2.39,2.39,0,0,1-2.61-.53,7.61,7.61,0,0,1-.58-1.6,2.32,2.32,0,0,0-3.52-.77l-1.41-1.88a4.76,4.76,0,0,1-1.79,1,1.58,1.58,0,0,1-1.78-.72c-.19-.4-.27-1-.71-1s-.52.38-.81.54c-.5.28-1.12-.2-1.34-.73-1.19-2.87-1.42-2-3.72-.56a20.46,20.46,0,0,1-7.53,2.67,13.67,13.67,0,0,1-7.5-.66c-1.94-.82-4.5-2.12-5.79-.46-.07,1.7,3.07,1.47,3.77,3s-1.71,3.53-.66,4.91c-1.53-1-3.4.44-4.93,1.44-3,1.95-6.73,2.24-10.29,2.48a3.86,3.86,0,0,1-3.1-.68,3.17,3.17,0,0,1-.73-2.34c0-3.5,2-6.65,3.93-9.58,1.35-2.07,3.38-4.41,5.76-3.79a17.06,17.06,0,0,0-13.78-9,33.89,33.89,0,0,0-7.83.72l-4,.7a1.9,1.9,0,0,0-1-1.41l-3.09,1.7c1.45.54,1.21,2.7.39,4a10.09,10.09,0,0,1-8.86,4.62c-2-.1-4.42-.72-5.86.71a1.6,1.6,0,0,0-2.66.14l-6.45-4.14-1.78.26a2.71,2.71,0,0,0-3.73-1.76c-.89-2.44-4.14-2.82-6.74-2.78a1.12,1.12,0,0,1-1.7,1.07l-.32,1.51c-.15-.48-.87-.3-1.29,0l-5.51,3.58a5.64,5.64,0,0,0,5.57-.41l4.21-4.41a3.24,3.24,0,0,1,2.19,3.29c.7-.24.85,1,.57,1.65l1.59-.43a1.3,1.3,0,0,1-.09,1.37l2.83,1.44a3.08,3.08,0,0,1-2.19,2.85,5.83,5.83,0,0,1-4.39-1.41,3.87,3.87,0,0,1,0,2.38l-2.36.21-.71,2a2.88,2.88,0,0,1-1.17,1.74c-1.12.59-2.39-.42-3.25-1.36.31.7-1,.85-1.65.45s-1.92-.5-1.8.26a1.89,1.89,0,0,0-3.12-.13l-1.15-1.32a3.93,3.93,0,0,1-1.87.95l-1.11-1.28a5.35,5.35,0,0,1-2.16,1.43c.11-.8-1.09-1-1.89-.81s-2-.33-1.62-1a3.31,3.31,0,0,0-1.88,2l-1.48-1.14a2.12,2.12,0,0,0-.33,1.59,4.83,4.83,0,0,0-4,1.09c-.28-.87-1.35-1.9-1.87-1.14a7.89,7.89,0,0,0,.27-3.63,2.69,2.69,0,0,0-2.58-2.18l.18-2.33c-2,1.27-2.53,1.95-4.77,1.3-1.85-.54-3.22-2.11-5.21-2.46a14.79,14.79,0,0,0-3.05-.05,23.19,23.19,0,0,1-7.31-.91l-1.36.73L283.32,161l-2.26.91,1.81,3.87c.44.93,1.77,1.93,2.25,1l.87,2.07a3.06,3.06,0,0,1,2.45-.66l0,5a6.71,6.71,0,0,1-.28,2.36c-1,2.61-4.59,2.88-7.32,2.25s-5.77-1.65-8.14-.17a7.15,7.15,0,0,1-1.26-8.08,7.64,7.64,0,0,0-4.68.7l-.31-4.21a2.7,2.7,0,0,0-.25-1.13c-.67-1.19-2.45-.72-3.74-.27s-3.32.17-3.22-1.2c-1.89,2.41-6.63.6-8.26,3.19a25,25,0,0,0-2.66-3.94,4.26,4.26,0,0,0-2.51,3.46c-1.32-.28-2.34,1.1-3,2.28l-1.55,2.87c-.46-.34-1.1.17-1.29.71s-.22,1.18-.63,1.57c-1,.91-3.2-.05-3.45,1.23l-1.85-1.45a2.47,2.47,0,0,1-1.19.76l-.67-1.31-1.88.44a2.51,2.51,0,0,0-1.81-2.72,4.82,4.82,0,0,0-.78-3.5,5.19,5.19,0,0,0-2.67-.64,1.79,1.79,0,0,0-1.65,1.85,4.16,4.16,0,0,0-1.3-.94,1.28,1.28,0,0,1-1.1.82l-3.52-.17a1.26,1.26,0,0,1-1.33,1.34,11.33,11.33,0,0,1-2.13-2.69,1.78,1.78,0,0,0-2,.35l-.06,3.72,2.5.74a3,3,0,0,1-2.14,2.21l.7,2.16a18.44,18.44,0,0,0-4.81,1.83c-1.32-.37-2.74-.29-4-.82s-2.28-2.06-1.58-3.23a6,6,0,0,0-4.44.22L196,171a10.23,10.23,0,0,1-5.66.57l-.57-1.35a1.41,1.41,0,0,1-1.94-1.21,4,4,0,0,1-5.72.19L177,172.88a2,2,0,0,0-1.89-1.62,5.72,5.72,0,0,0-2.61.61c1.48-2.3-2.54-1.45-3.26-1.11-1.87.86-2.56,1.69-3.17,3.93a3.91,3.91,0,0,1-2.89-.25l-3.51,1.67a8.82,8.82,0,0,1-2.85-6.46,1.83,1.83,0,0,0-.24-1.23,1.69,1.69,0,0,0-1.35-.44l-5.29-.15-1,.61a2.58,2.58,0,0,0-2-.89,3.4,3.4,0,0,1-3.3,1.16c-1.34-.2-2.72-1.22-2.69-2.58l-1.77,3.73a5.13,5.13,0,0,1-1.77,7,1.83,1.83,0,0,1-2.28,1.8c-.07.87-1.22,1.12-2.09,1.13-2.78,0-4.07.2-6.34-1.37l-1.6,1a3.72,3.72,0,0,0-1.89-2.78c-.47-1.46-1.82-2.52-2.28-4s1.09-3.53,2.3-2.58a19.59,19.59,0,0,0-10.06-7.83c0-.92-1.38-.9-2.26-.65s-2.32-.22-1.9-1a2.77,2.77,0,0,1-3.23,1.39,3.46,3.46,0,0,1,2.13,2.28,3.91,3.91,0,0,0-2.79,1.11c1.14.16,1.3,1.94.47,2.72a4.67,4.67,0,0,1-3.25.86l-3.92,0c-.17,1-1.56,1.11-2.57,1a4.83,4.83,0,0,1-2.53-.87,1.7,1.7,0,0,1-.32-2.39l-3.74-.32-6.78-.59a2.76,2.76,0,0,1-1.71-.55c-.29-.28-.45-.68-.77-.94a1.6,1.6,0,0,0-2.1.29,3.85,3.85,0,0,0-.86,2.14,2.08,2.08,0,0,0-1.88,0,5.21,5.21,0,0,1-5.29,2.45,16,16,0,0,0-1.9-.39,6.18,6.18,0,0,0-3.52,1.35,10.25,10.25,0,0,0-1.2-4.63,5.83,5.83,0,0,1-3.51-1.74,40.09,40.09,0,0,1-4.31-1.25c-.1,1.3-2,.93-3.34.73-2.42-.38-4.77,1.42-7.19,1.08-1.41-.2-2.72-1.12-4.13-1a15,15,0,0,0-2.39.81,2,2,0,0,1-2.27-.59c-1,2-2.14,4.14-4.21,4.91-1.77.66-3.74.14-5.56-.39l-.27-1.63A2,2,0,0,1,24,165.11,2,2,0,0,1,22,166.55a14.19,14.19,0,0,1-9.88,2.67c-.73-1.69-3.72-1.5-4.21.27l-1.06-8.06a1.86,1.86,0,0,0,1.54-2.6l3.79.76.82,1.87,4.72-4.64-2.53-.12-.59-1.79a3.26,3.26,0,0,1-4.55-.06,3.53,3.53,0,0,0-.85-.83c-.71-.37-1.56.11-2.23.58l.23,2a2.92,2.92,0,0,1-3.82-1.33,1.51,1.51,0,0,1-1.37.06,1.49,1.49,0,0,0-2-1.5L.45,0h640S639.88,186.81,639.71,187.33Z"/><path class="cls-2" d="M577.48,165.45a1.46,1.46,0,0,0,1,0c.31-.15.45-.66.15-.84s-.62-.08-.66-.34.31-.32.49-.49a.42.42,0,1,0-.59-.61,10.75,10.75,0,0,0,.68-1.41c.08-.22.15-.49,0-.66s-.5-.13-.75,0a6.17,6.17,0,0,0-1.39.85,1.29,1.29,0,0,0-1-.92,2.32,2.32,0,0,0,.52-1.82c-.29.06-.42-.34-.63-.55a.57.57,0,0,0-.81.79,1.63,1.63,0,0,0-1,.38.69.69,0,0,0,0,1,1.41,1.41,0,0,0-1.51,1.42c.45-.12,1.11-.11,1.17.35,0,.3-.24.53-.45.75s-.35.61-.1.78.35,0,.54.06a.67.67,0,0,1,.42,1,.9.9,0,0,0,1.12-.83,1.85,1.85,0,0,1,.34,1.2,2.09,2.09,0,0,1,2.37,0"/><path class="cls-2" d="M569.12,153.83l0-1.15a2,2,0,0,0-2,1l-.49-.75a.43.43,0,0,0-.16-.17c-.27-.13-.44.31-.42.61a2,2,0,0,0-1.76-.88l.08.82a1.85,1.85,0,0,0-1.25.21c-.35.26-.39.91,0,1.06l-1.43,1.56a.71.71,0,0,1,.73.5,2,2,0,0,1,0,.94l.85-.7a2.85,2.85,0,0,0,.61,1.23l.75-.89c.15.37.55.81.86.56.14-.12.17-.36.35-.44.42-.17.48.8.94.86a.76.76,0,0,1,.7-.59c.33,0,.59.45.38.71a1.41,1.41,0,0,0,.94-.48,1,1,0,0,0,.87.9,2.9,2.9,0,0,0,1.33-.15l-.54-.37c.34.09.62-.39.47-.71a1,1,0,0,0-.91-.48l.89-.86a1.13,1.13,0,0,0-.82-.17l.05-.43c-.16-.21-.46.1-.73.11s-.43-.55-.32-.92.16-.9-.21-1"/><path class="cls-2" d="M550.29,162.5a.86.86,0,0,1-.63.82,14.82,14.82,0,0,0-2.49-3.81.74.74,0,0,1-.94.68,1.62,1.62,0,0,0,1,1.93.85.85,0,0,0-.32,1.36,1.71,1.71,0,0,0-1.67.78,2.07,2.07,0,0,0-2.25.38.82.82,0,0,0-1.33-.13l-.34-1.17-1.12.42-.07-.95-1.08.5a1.79,1.79,0,0,1,.09-1.14,2.47,2.47,0,0,0-1.14.45l0-1a1.55,1.55,0,0,0-.95-.13,3,3,0,0,0-.67-1.23.59.59,0,0,1-1-.21l-.56,1.08c0-.56-.84-.64-1.39-.54l-2.24.38-3.42-.84-.26,1a2.08,2.08,0,0,1-1-.44,1.33,1.33,0,0,0-.43,1.56c.28.52,1.22.53,1.36,0l.47.52,4.79.49.14.58,1.87,1.11c.68.41,1.47,1.22,1,1.86a1.42,1.42,0,0,1-.65.41l-2.06.84a2.25,2.25,0,0,0,.32,1.34,1,1,0,0,1-.85,0l-.14.88-1.65,1,0,1-1.63.6.14,1.15-.86,0a1.76,1.76,0,0,0-.81,2,5.17,5.17,0,0,0,1.11,2,3.66,3.66,0,0,1,.92.92,3,3,0,0,1,3.49.82.77.77,0,0,1,1.16-.38.92.92,0,0,1,1.62-.49l-.72-1,1.25-.19a6.14,6.14,0,0,0,.64-1.72l.82.16a2.62,2.62,0,0,1-.19-2.22c.1.53.89,0,1.06-.5l1.06,1a3.3,3.3,0,0,1,.8-1.28,1,1,0,0,0,.4.75l.61-.56a3,3,0,0,0,3.41-1.33l.95.54.3-.91,1,.92a1.88,1.88,0,0,0,0-1.28l.87.35a1.36,1.36,0,0,0-.22-1.3,1,1,0,0,0,1-.46l-1-.28A1.82,1.82,0,0,0,549,168a1.63,1.63,0,0,0,1.24-.15,1.57,1.57,0,0,0-.57-.73A2.21,2.21,0,0,1,551,165a2,2,0,0,1,1.37-.08c.81-.08.88-1.42.18-1.83a1.92,1.92,0,0,0-2.2.53,3.81,3.81,0,0,0-.7-1.26"/><path class="cls-2" d="M495,168.53a.39.39,0,0,0,.45.41.68.68,0,0,1,.87-.81,1.51,1.51,0,0,0,.47.21c.28,0,.46-.35.38-.62a1.34,1.34,0,0,0-.54-.64,2.57,2.57,0,0,0,.81-.22,1,1,0,0,1-.25-.67,1,1,0,0,0,.55-.26,8.21,8.21,0,0,0-1.4-.15,1.7,1.7,0,0,0,.79-.89c.1-.4-.25-.9-.63-.78a.69.69,0,0,0,.23-1c-.23-.28-.83-.06-.72.3-.39.26-.78-.87-1.11-.54a.42.42,0,0,0-.09.29v1a1.66,1.66,0,0,1-.8,0c.09.2-.12.43-.34.47a2.61,2.61,0,0,1-.68-.06,2.59,2.59,0,0,0-1.56.61,1.53,1.53,0,0,0-.81,1c0,.44.61.84.86.46a1.71,1.71,0,0,0,0,1.14c.17.34.71.51.95.2l.06.75.5-.38a1.15,1.15,0,0,0,.45.58c.22.1.56,0,.55-.28a2.49,2.49,0,0,0,1.14.21"/><path class="cls-2" d="M488.8,154.66a2.38,2.38,0,0,0,.77,1.32l.22-.95a.41.41,0,0,1,.15-.28c.27-.17.45.3.67.52s.86.12,1.2-.18.66-.68,1.1-.7l-1-.43a3.38,3.38,0,0,0,.86-.64,1.15,1.15,0,0,0-1.11-.34,3,3,0,0,0,1.31-1.5,1.85,1.85,0,0,0-1-.16,2.53,2.53,0,0,1,0-1c0-.33-.19-.73-.52-.7s-.44.6-.37,1a1.55,1.55,0,0,0-.55-.73.56.56,0,0,0-.79.22c-.1.32.21.74,0,1s-.51,0-.76.07c-.45.12-.38.78-.21,1.21a.65.65,0,0,0-.86.47.62.62,0,0,0,.7.67,1.3,1.3,0,0,0-.81.84.89.89,0,0,1,1.07.47"/><path class="cls-2" d="M436.42,154.74c-.33-.19-.51-.58-.85-.74s-.88.23-.61.5a2.48,2.48,0,0,0-1.15,0,.89.89,0,0,0-.65.85A4,4,0,0,0,432,155a.47.47,0,0,0-.35,0,.54.54,0,0,0-.17.45l-.14,3c.13-.33.65-.29.91,0s.36.63.6.9a1.21,1.21,0,0,0,1.38.26l.42-.78a1,1,0,0,0,.89.71,1.07,1.07,0,0,0,1-.6c.07-.12.13-.29.28-.31s.29.43.47.66.69.14,1,0,.82-.29,1,0c.35,0,.29-.62.57-.85s.61,0,.93,0c.88.11,1.69-.94,2.5-.6a.93.93,0,0,0-.61-.83l.74-.93a.74.74,0,0,0,.2-.38.86.86,0,0,0-.17-.45,2.92,2.92,0,0,1-.38-1.87,3,3,0,0,0-1.05.86,1.59,1.59,0,0,0-.42-.8.55.55,0,0,0-.8,0c-.2.35.19.88-.09,1.18s-1.05-.06-1.23.36c-.09.21.08.5-.07.68s-.53,0-.82-.1a.7.7,0,0,0-.86.55l-.57-.9c-.17-.27-.46-.58-.74-.45"/><path class="cls-2" d="M310.33,147.12c.32-.77-.6-1.47-1.4-1.69s-1.79-.41-2.05-1.2a2.31,2.31,0,0,1,0-.87c.06-.83.09-1.65.08-2.48,0-.59-.17-1.34-.75-1.42a3.17,3.17,0,0,0,.49-1.87c-.1-.65-.8-1.24-1.4-1a1.4,1.4,0,0,0-1.9-1.92.59.59,0,0,0,.15-.91,1.75,1.75,0,0,0-1-.47,3.78,3.78,0,0,0-2.79,0,3.74,3.74,0,0,0-1.41,2.25,1.84,1.84,0,0,0-.15.89,2.57,2.57,0,0,1,.09.61c0,.3-.31.5-.49.74a4.31,4.31,0,0,0-.46,1.73c-.13.6-.6,1.24-1.19,1.12a1.2,1.2,0,0,0,1,1.06c-.3.15-.24.61-.07.9s.44.59.37.92-.22.4-.24.62a1.32,1.32,0,0,0,.23.67,1.67,1.67,0,0,1-.3,1.81c.39,0,.52.53.45.92s-.18.85.11,1.11.49.2.58.43-.09.43-.12.65c-.06.48.47.79.89,1s.89.71.64,1.12a1.72,1.72,0,0,0,1.1-.43l.8,1.54a.78.78,0,0,1,1-.18,2.37,2.37,0,0,1,.76.87,1.35,1.35,0,0,1,2.36-.56c-.24-.38.19-.86.62-1a8.2,8.2,0,0,0,1.33-.21c.41-.18.64-.84.25-1.05.93.35,1.66-.82,2-1.77l.7-2.15"/><path class="cls-2" d="M213.61,152.5a1.07,1.07,0,0,1-.33,1,.88.88,0,0,0-.6-1c-.42-.09-.87.42-.64.79a3.86,3.86,0,0,0-1.82-1.53l-1.1-.59c.32.54-.16,1.21-.69,1.55s-1.19.6-1.43,1.18c.32,0,.54.37.51.69a1.72,1.72,0,0,1-.43.85l1.19.14c.09.23-.05.47-.12.69s-.05.55.18.61.32-.08.48-.05c.47.07.11.87.38,1.26.16.23.51.24.72.43a1,1,0,0,1,.24.45l.49,1.39.56,1.59a.73.73,0,0,1,.8-.49.74.74,0,0,1,.58.75c.21-.43.55-.93,1-.88a.59.59,0,0,0,.36.55,2.22,2.22,0,0,0,.45-.91l1.21.56.33-.82a1.26,1.26,0,0,0,.94.55c.38,0,.68-.54.4-.78a2.91,2.91,0,0,0,2.83,0c.22-.11.44-.3.43-.54a.67.67,0,0,0-.38-.49,3.17,3.17,0,0,0-1.55-.51l.51-.76c-.52-.06-.64-.85-.29-1.25a2.26,2.26,0,0,1,1.44-.54,2.15,2.15,0,0,0-1.6-.6,3.13,3.13,0,0,0,.93-1.11l-1.36-.34c.17-.31.24-.86-.12-.89s-.4.44-.59.7a.85.85,0,0,1-1.11.1,2.44,2.44,0,0,1-.74-.94,3.33,3.33,0,0,0-.91,1.34.92.92,0,0,0-1.49,0l.16-1.8"/><path class="cls-2" d="M202.45,153.67l.12.46a2.36,2.36,0,0,0-.54-1,.78.78,0,0,0-1-.08c-.13.12-.21.3-.36.39-.42.24-.92-.35-1.38-.21s-.38.87-.17,1.34c-.69.38-1.77-.46-2.23.18-.27.36,0,.88.35,1.17s.79.5,1,.9a.81.81,0,0,0-1.08.36.82.82,0,0,0,.41,1.06,4.81,4.81,0,0,0-1.85.92,6.06,6.06,0,0,1-.86.65c-.59.32-1.32.3-1.94.56s-1.11,1.1-.65,1.59,1,.25,1.51.19a3.85,3.85,0,0,1,2.9.84,3.93,3.93,0,0,0,.47-1.84c.37-.08.44.56.77.75s.73-.19.85-.56.16-.83.49-1.05,1.09.11,1.5.52l0-1.39a.64.64,0,0,1,.09-.34c.25-.29.64.17,1,.38a1.51,1.51,0,0,0,1,.08,2.33,2.33,0,0,0,.91-.3.75.75,0,0,0,.34-.83c-.08-.24-.31-.38-.48-.57s-.28-.48-.11-.67.3-.14.42-.25c.29-.27,0-.74-.32-1a1.55,1.55,0,0,0,1.49-1.12c-.15.2-.47,0-.57-.19s-.12-.48-.3-.65a.83.83,0,0,0-.4-.19l-1.23-.35"/><path class="cls-2" d="M125.08,154.87c-.2.48.42,1,.93.87a2,2,0,0,0,1.14-1,2.58,2.58,0,0,0,.41-.91c.21-1.17-1-2.07-2-2.66,0,.36-.13.85-.49.8a.67.67,0,0,1-.3-.18l-1.22-1.1c.06.52,0,1.24-.54,1.32a2.3,2.3,0,0,1-.76-.19,1,1,0,0,0-.72,1.77,2,2,0,0,1-1.09-.17,1.65,1.65,0,0,0-1.09-.1c-.35.14-.56.64-.3.9-.52.1-1.16.31-1.24.84a1.39,1.39,0,0,0,.09.6l.56,1.72a.78.78,0,0,0,.25.43c.37.23.88-.29,1.27-.09.19.09.29.34.5.37s.44-.31.45-.59,0-.61.19-.79a.59.59,0,0,1,.34.41c.31-.31,0-.91.26-1.25s.46-.22.72-.28.53-.29.45-.53l.65.88c-.15-.41.32-.77.73-.91s.92-.28,1-.69"/><path class="cls-2" d="M66.09,146.37l-.83-.88c0,.28-.42.32-.65.16s-.38-.45-.65-.49-.57.21-.86.31c-.5.18-1-.1-1.55-.17s-1.21.38-1,.85a.83.83,0,0,0-1.27.21,1.65,1.65,0,0,0-.11.45,4.43,4.43,0,0,0,.1,2.08,1.8,1.8,0,0,0,1.54,1.25,1.17,1.17,0,0,1,.56.06c.13.07.21.22.32.33a.84.84,0,0,0,1.32-.26.7.7,0,0,0,1.16.74,1.13,1.13,0,0,0,1,.8,3.55,3.55,0,0,0,1.36-.24,1.71,1.71,0,0,0-.72-1.7A2.19,2.19,0,0,1,67,148.66a.64.64,0,0,0,.3-.24c.08-.16,0-.36-.15-.51l-1.37-1.85"/><path class="cls-2" d="M103.84,184.08a54.58,54.58,0,0,1,4.87,14.48c.35,1.89,3.25,1.09,2.89-.8a57.18,57.18,0,0,0-5.17-15.19c-.87-1.72-3.46-.21-2.59,1.51Z"/></g></g></g></svg>